# xmcd
#
# Track frame offsets: 
#        150
#        15285
#        39840
#        60290
#        77636
#        94596
#        112607
#        128613
#        144347
#        164485
#        184652
#        201366
#
# Disc length: 2871 seconds
#
# Revision: 0
# Processed by: cddbd v1.5.2PL0 Copyright (c) Steve Scherf et al.
# Submitted via: ExactAudioCopy v1.3
#
DISCID=830b350c
DTITLE=Zed Mitchell - Winter In Amsterdam
DYEAR=2017
DGENRE=Blues
TTITLE0=Winter In Amsterdam
TTITLE1=After Love
TTITLE2=Child Of The Moon
TTITLE3=Don't Talk About Love
TTITLE4=One Day At A Time
TTITLE5=I Play My Guitar
TTITLE6=What's Done Is Done
TTITLE7=I Did'nt Forget You
TTITLE8=Hidden In Someone's Heart
TTITLE9=If I Could Be Someone
TTITLE10=Do You Know
TTITLE11=Thank You, My Angels
EXTD=
EXTT0=
EXTT1=
EXTT2=
EXTT3=
EXTT4=
EXTT5=
EXTT6=
EXTT7=
EXTT8=
EXTT9=
EXTT10=
EXTT11=
PLAYORDER=
